<svg width="512" height="512" xmlns="http://www.w3.org/2000/svg">

 <g>
  <title>background</title>
  <rect fill="none" id="canvas_background" height="402" width="582" y="-1" x="-1"/>
 </g>
 <g>
  <title>Layer 1</title>
  <path id="svg_1" fill="#1B1C1D" d="m255.14,442.23q-16.36,-25.42 -24.68,-45.85q-0.06,64.39 -21.52,111.22a273.07,273.07 0 0 0 47.06,4a263.17,263.17 0 0 0 73.75,-10.1a118.11,118.11 0 0 1 -16.13,-6.6q-35.87,-17.49 -58.48,-52.67z"/>
  <path id="svg_2" fill="#1B1C1D" d="m96.63,347a18.63,18.63 0 0 0 -3.39,0.29q-31.11,2.87 -57.91,-5.05a162.39,162.39 0 0 1 -23.64,-9a238.14,238.14 0 0 0 29.9,62.67q15.67,-17.62 40.8,-32.48a226.45,226.45 0 0 1 31.16,-15.78q7.69,-3.67 16,-6.66q-12,2.53 -21.35,4.3q-6.58,0.98 -11.57,1.71z"/>
  <path id="svg_3" fill="#1B1C1D" d="m75.28,75.28q-1.78,1.84 -3.44,3.62q-0.86,0.86 -1.66,1.72l-19.63,23q-0.52,0.75 -1.15,1.55q23.93,5.8 52.86,21.29a147.47,147.47 0 0 1 51.54,44.42q12.8,17.91 23.82,44.13q-1.43,-4.19 -2.81,-8.15q-9.87,-27 -21,-51.08l0.06,-0.06a93,93 0 0 0 -18,-24.91q-4.42,-4 -5.34,-12.22a25.4,25.4 0 0 1 2,-13.77q3.21,-7.8 9.53,-0.86q1.49,1.72 8.9,12.86q4.3,6.66 16.93,36l-0.06,0q11.36,26.74 19.51,49.87q-2.34,-50.97 1.86,-88.39q1,-13.14 2.7,-25.71a136.79,136.79 0 0 1 2.81,-16.59q3.67,-14.58 8.38,-8.84q8.44,9.58 6.77,23.47a240.67,240.67 0 0 1 -4.48,25q-0.23,0.75 -0.57,2.41q-0.86,7.17 -2.18,18.59q-2.18,17.91 0.52,71.22q0.29,2.58 0.34,5.11a250.66,250.66 0 0 1 6.83,-49.7q21.52,-94.87 85.91,-112a17,17 0 0 1 6.14,-1.49a38.1,38.1 0 0 1 6.37,-1.38q1.09,0 2.12,-0.06a2.09,2.09 0 0 1 1.09,-0.06a42.11,42.11 0 0 1 9.18,-0.4q28.35,-1 57.79,17.73q11.08,7.08 21.76,42.6q9.58,35.7 18,48.84q4.53,8.15 14.46,17.73t12.45,12.45a29.53,29.53 0 0 1 4,7.92a11.77,11.77 0 0 0 0.57,2.75a19.3,19.3 0 0 0 0.17,3.21a42.78,42.78 0 0 1 -1,6.77q-2.24,5.22 -5.39,12.34q-4.25,6.2 -8.09,12.28q-20.2,25.83 -56.47,44.71q-17.56,8.21 -47.69,18.54q-17.39,5.17 -40.23,12.11l-4.94,1.43q6,-0.46 13.54,-0.86q5.91,-0.69 11,-0.8q19.69,-1.49 26.34,-0.92a13.15,13.15 0 0 1 2.75,-0.06l1.78,0a11.89,11.89 0 0 1 2.58,0.06a251.35,251.35 0 0 1 39.48,3.62q48,8.44 68.29,44a37,37 0 0 1 3.85,8.78a29.62,29.62 0 0 1 1,5.39a5.68,5.68 0 0 1 0.06,0.8a15.23,15.23 0 0 1 -0.11,2.64q-0.57,6.54 -5.34,14.58q-7.06,9.53 -10.73,15.44a62.5,62.5 0 0 0 -8.78,20.43q-2.12,6.94 -0.23,23.07l4.42,-4.3a2,2 0 0 1 0.4,-0.4q74.74,-74.92 74.74,-180.75t-74.84,-180.72q-74.89,-74.84 -180.72,-74.84t-180.72,74.84zm392.49,193.72l13,4l-3.47,13l0.11,13.6l-13.49,0.75l-12.8,4.36l-4.88,-12.63l-8.15,-10.85l10.62,-8.49l7.75,-11.19l11.31,7.45z"/>
  <text style="cursor: move;" font-weight="bold" transform="rotate(-14.348248481750488 202.08259582519554,257.657958984375) matrix(2.8830145084211267,0,0,3.1895209128880424,-214.26524386158488,-452.7829051322393) " xml:space="preserve" text-anchor="start" font-family="'League Gothic', sans-serif" font-size="29" id="svg_4" y="234.264277" x="100.934982" stroke-width="0" fill="#1B1C1D">一胜百</text>
 </g>
</svg>